g Mesh
v -1.45 1.7 -0.75
v -1.45 1.7 0.75
v 1.45 1.7 0.75
v 1.45 1.7 -0.75
v -1.45 -1.7 -0.75
v 1.45 -1.7 -0.75
v 1.45 -1.7 0.75
v -1.45 -1.7 0.75
v -1.45 -1.7 -0.75
v -1.45 -1.7 0.75
v -1.45 1.7 0.75
v -1.45 1.7 -0.75
v 1.45 -1.7 -0.75
v 1.45 1.7 -0.75
v 1.45 1.7 0.75
v 1.45 -1.7 0.75
v -1.45 -1.7 0.75
v 1.45 -1.7 0.75
v 1.45 1.7 0.75
v -1.45 1.7 0.75
v -1.45 -1.7 -0.75
v -1.45 1.7 -0.75
v 1.45 1.7 -0.75
v 1.45 -1.7 -0.75

vn 0 1 0
vn 0 1 0
vn 0 1 0
vn 0 1 0
vn 0 -1 0
vn 0 -1 0
vn 0 -1 0
vn 0 -1 0
vn -1 0 0
vn -1 0 0
vn -1 0 0
vn -1 0 0
vn 1 0 0
vn 1 0 0
vn 1 0 0
vn 1 0 0
vn 0 0 1
vn 0 0 1
vn 0 0 1
vn 0 0 1
vn 0 0 -1
vn 0 0 -1
vn 0 0 -1
vn 0 0 -1

vt 0.28125 0.01020408
vt 0.515625 0.01020408
vt 0.515625 0.3061225
vt 0.28125 0.3061225
vt 0.28125 0.01020408
vt 0.28125 0.3061225
vt 0.515625 0.3061225
vt 0.515625 0.01020408
vt 0.015625 0.01020408
vt 0.25 0.01020408
vt 0.25 0.3571429
vt 0.015625 0.3571429
vt 0.015625 0.01020408
vt 0.015625 0.3571429
vt 0.25 0.3571429
vt 0.25 0.01020408
vt 0.015625 0.377551
vt 0.015625 0.6734694
vt 0.546875 0.6734694
vt 0.546875 0.377551
vt 0.015625 0.6938776
vt 0.546875 0.6938776
vt 0.546875 0.9897959
vt 0.015625 0.9897959

usemtl Mesh
usemap Mesh
f 1/1/1 2/2/2 3/3/3
f 1/1/1 3/3/3 4/4/4
f 5/5/5 6/6/6 7/7/7
f 5/5/5 7/7/7 8/8/8
f 9/9/9 10/10/10 11/11/11
f 9/9/9 11/11/11 12/12/12
f 13/13/13 14/14/14 15/15/15
f 13/13/13 15/15/15 16/16/16
f 17/17/17 18/18/18 19/19/19
f 17/17/17 19/19/19 20/20/20
f 21/21/21 22/22/22 23/23/23
f 21/21/21 23/23/23 24/24/24
