g Mesh
v -1.45 -1.3 -0.85
v -1.45 -1.3 -0.05
v 1.45 -1.3 -0.05
v 1.45 -1.3 -0.85
v -1.45 2 -1.45
v -1.45 2 1.45
v 1.45 2 1.45
v 1.45 2 -1.45
v -0.95 -0.1 -0.15
v -0.95 -0.1 -0.05
v -0.85 -0.1 -0.05
v -0.85 -0.1 -0.15
v 0.95 -0.1 -0.15
v 0.95 -0.1 -0.05
v 1.05 -0.1 -0.05
v 1.05 -0.1 -0.15
v -1.45 -2 -0.85
v 1.45 -2 -0.85
v 1.45 -2 1.45
v -1.45 -2 1.45
v -1.45 1.4 -1.45
v 1.45 1.4 -1.45
v 1.45 1.4 -0.05
v -1.45 1.4 -0.05
v -0.95 -0.2 -0.15
v -0.85 -0.2 -0.15
v -0.85 -0.2 -0.05
v -0.95 -0.2 -0.05
v 0.95 -0.2 -0.15
v 1.05 -0.2 -0.15
v 1.05 -0.2 -0.05
v 0.95 -0.2 -0.05
v -1.45 -2 -0.85
v -1.45 -2 1.45
v -1.45 -1.3 1.45
v -1.45 -1.3 -0.85
v -1.45 -1.3 -0.05
v -1.45 -1.3 1.45
v -1.45 2 1.45
v -1.45 2 -0.05
v -1.45 1.4 -1.45
v -1.45 1.4 -0.05
v -1.45 2 -0.05
v -1.45 2 -1.45
v -0.95 -0.2 -0.15
v -0.95 -0.2 -0.05
v -0.95 -0.1 -0.05
v -0.95 -0.1 -0.15
v 0.95 -0.2 -0.15
v 0.95 -0.2 -0.05
v 0.95 -0.1 -0.05
v 0.95 -0.1 -0.15
v -0.85 -0.2 -0.15
v -0.85 -0.1 -0.15
v -0.85 -0.1 -0.05
v -0.85 -0.2 -0.05
v 1.05 -0.2 -0.15
v 1.05 -0.1 -0.15
v 1.05 -0.1 -0.05
v 1.05 -0.2 -0.05
v 1.45 -2 -0.85
v 1.45 -1.3 -0.85
v 1.45 -1.3 1.45
v 1.45 -2 1.45
v 1.45 -1.3 -0.05
v 1.45 2 -0.05
v 1.45 2 1.45
v 1.45 -1.3 1.45
v 1.45 1.4 -1.45
v 1.45 2 -1.45
v 1.45 2 -0.05
v 1.45 1.4 -0.05
v -1.45 -2 1.45
v 1.45 -2 1.45
v 1.45 2 1.45
v -1.45 2 1.45
v -1.45 -2 -0.85
v -1.45 -1.3 -0.85
v 1.45 -1.3 -0.85
v 1.45 -2 -0.85
v -1.45 -1.3 -0.05
v -1.45 -0.2 -0.05
v 1.45 -0.2 -0.05
v 1.45 -1.3 -0.05
v -1.45 -0.2 -0.05
v -1.45 1.4 -0.05
v -0.95 1.4 -0.05
v -0.95 -0.2 -0.05
v -1.45 1.4 -1.45
v -1.45 2 -1.45
v 1.45 2 -1.45
v 1.45 1.4 -1.45
v -0.95 -0.2 -0.15
v -0.95 -0.1 -0.15
v -0.85 -0.1 -0.15
v -0.85 -0.2 -0.15
v -0.95 -0.1 -0.05
v -0.95 1.4 -0.05
v 1.45 1.4 -0.05
v 1.45 -0.1 -0.05
v -0.85 -0.2 -0.05
v -0.85 -0.1 -0.05
v 0.95 -0.1 -0.05
v 0.95 -0.2 -0.05
v 0.95 -0.2 -0.15
v 0.95 -0.1 -0.15
v 1.05 -0.1 -0.15
v 1.05 -0.2 -0.15
v 1.05 -0.2 -0.05
v 1.05 -0.1 -0.05
v 1.45 -0.1 -0.05
v 1.45 -0.2 -0.05

vn 0 1 0
vn 0 1 0
vn 0 1 0
vn 0 1 0
vn 0 1 0
vn 0 1 0
vn 0 1 0
vn 0 1 0
vn 0 1 0
vn 0 1 0
vn 0 1 0
vn 0 1 0
vn 0 1 0
vn 0 1 0
vn 0 1 0
vn 0 1 0
vn 0 -1 0
vn 0 -1 0
vn 0 -1 0
vn 0 -1 0
vn 0 -1 0
vn 0 -1 0
vn 0 -1 0
vn 0 -1 0
vn 0 -1 0
vn 0 -1 0
vn 0 -1 0
vn 0 -1 0
vn 0 -1 0
vn 0 -1 0
vn 0 -1 0
vn 0 -1 0
vn -1 0 0
vn -1 0 0
vn -1 0 0
vn -1 0 0
vn -0.9999999 0 0
vn -0.9999999 0 0
vn -0.9999999 0 0
vn -0.9999999 0 0
vn -1 0 0
vn -1 0 0
vn -1 0 0
vn -1 0 0
vn -1 0 0
vn -1 0 0
vn -1 0 0
vn -1 0 0
vn -1 0 0
vn -1 0 0
vn -1 0 0
vn -1 0 0
vn 1 0 0
vn 1 0 0
vn 1 0 0
vn 1 0 0
vn 1 0 0
vn 1 0 0
vn 1 0 0
vn 1 0 0
vn 1 0 0
vn 1 0 0
vn 1 0 0
vn 1 0 0
vn 0.9999999 0 0
vn 0.9999999 0 0
vn 0.9999999 0 0
vn 0.9999999 0 0
vn 1 0 0
vn 1 0 0
vn 1 0 0
vn 1 0 0
vn 0 0 0.9999999
vn 0 0 0.9999999
vn 0 0 0.9999999
vn 0 0 0.9999999
vn 0 0 -1
vn 0 0 -1
vn 0 0 -1
vn 0 0 -1
vn 0 0 -1
vn 0 0 -1
vn 0 0 -1
vn 0 0 -1
vn 0 0 -1
vn 0 0 -1
vn 0 0 -1
vn 0 0 -1
vn 0 0 -0.9999999
vn 0 0 -0.9999999
vn 0 0 -0.9999999
vn 0 0 -0.9999999
vn 0 0 -1
vn 0 0 -1
vn 0 0 -1
vn 0 0 -1
vn 0 0 -1
vn 0 0 -1
vn 0 0 -1
vn 0 0 -1
vn 0 0 -1
vn 0 0 -1
vn 0 0 -1
vn 0 0 -1
vn 0 0 -1
vn 0 0 -1
vn 0 0 -1
vn 0 0 -1
vn 0 0 -1
vn 0 0 -1
vn 0 0 -1
vn 0 0 -1

vt 0.140625 0.0078125
vt 0.203125 0.0078125
vt 0.203125 0.234375
vt 0.140625 0.234375
vt 0.21875 0.0078125
vt 0.4453125 0.0078125
vt 0.4453125 0.234375
vt 0.21875 0.234375
vt 0.140625 0.25
vt 0.1484375 0.25
vt 0.1484375 0.2578125
vt 0.140625 0.2578125
vt 0.140625 0.25
vt 0.1484375 0.25
vt 0.1484375 0.2578125
vt 0.140625 0.2578125
vt 0.4609375 0.0078125
vt 0.4609375 0.234375
vt 0.640625 0.234375
vt 0.640625 0.0078125
vt 0.65625 0.0078125
vt 0.65625 0.234375
vt 0.765625 0.234375
vt 0.765625 0.0078125
vt 0.140625 0.25
vt 0.140625 0.2578125
vt 0.1484375 0.2578125
vt 0.1484375 0.25
vt 0.140625 0.25
vt 0.140625 0.2578125
vt 0.1484375 0.2578125
vt 0.1484375 0.25
vt 0.53125 0.28125
vt 0.7109375 0.28125
vt 0.7109375 0.3359375
vt 0.53125 0.3359375
vt 0.0078125 0.0078125
vt 0.125 0.0078125
vt 0.125 0.265625
vt 0.0078125 0.265625
vt 0.53125 0.3515625
vt 0.640625 0.3515625
vt 0.640625 0.3984375
vt 0.53125 0.3984375
vt 0.140625 0.25
vt 0.1484375 0.25
vt 0.1484375 0.2578125
vt 0.140625 0.2578125
vt 0.140625 0.25
vt 0.1484375 0.25
vt 0.1484375 0.2578125
vt 0.140625 0.2578125
vt 0.140625 0.25
vt 0.140625 0.2578125
vt 0.1484375 0.2578125
vt 0.1484375 0.25
vt 0.140625 0.25
vt 0.140625 0.2578125
vt 0.1484375 0.2578125
vt 0.1484375 0.25
vt 0.53125 0.28125
vt 0.53125 0.3359375
vt 0.7109375 0.3359375
vt 0.7109375 0.28125
vt 0.0078125 0.0078125
vt 0.0078125 0.265625
vt 0.125 0.265625
vt 0.125 0.0078125
vt 0.53125 0.3515625
vt 0.53125 0.3984375
vt 0.640625 0.3984375
vt 0.640625 0.3515625
vt 0.0078125 0.28125
vt 0.0078125 0.5078125
vt 0.3203125 0.5078125
vt 0.3203125 0.28125
vt 0.78125 0.0078125
vt 0.8359375 0.0078125
vt 0.8359375 0.234375
vt 0.78125 0.234375
vt 0.8515625 0.0078125
vt 0.9375 0.0078125
vt 0.9375 0.234375
vt 0.8515625 0.234375
vt 0.53125 0.4140625
vt 0.65625 0.4140625
vt 0.65625 0.453125
vt 0.53125 0.453125
vt 0.3359375 0.28125
vt 0.3828125 0.28125
vt 0.3828125 0.5078125
vt 0.3359375 0.5078125
vt 0.140625 0.25
vt 0.1484375 0.25
vt 0.1484375 0.2578125
vt 0.140625 0.2578125
vt 0.3984375 0.28125
vt 0.515625 0.28125
vt 0.515625 0.46875
vt 0.3984375 0.46875
vt 0.953125 0.0078125
vt 0.9609375 0.0078125
vt 0.9609375 0.1484375
vt 0.953125 0.1484375
vt 0.140625 0.25
vt 0.1484375 0.25
vt 0.1484375 0.2578125
vt 0.140625 0.2578125
vt 0.953125 0.1640625
vt 0.9609375 0.1640625
vt 0.9609375 0.1953125
vt 0.953125 0.1953125

usemtl Mesh
usemap Mesh
f 1/1/1 2/2/2 3/3/3
f 1/1/1 3/3/3 4/4/4
f 5/5/5 6/6/6 7/7/7
f 5/5/5 7/7/7 8/8/8
f 9/9/9 10/10/10 11/11/11
f 9/9/9 11/11/11 12/12/12
f 13/13/13 14/14/14 15/15/15
f 13/13/13 15/15/15 16/16/16
f 17/17/17 18/18/18 19/19/19
f 17/17/17 19/19/19 20/20/20
f 21/21/21 22/22/22 23/23/23
f 21/21/21 23/23/23 24/24/24
f 25/25/25 26/26/26 27/27/27
f 25/25/25 27/27/27 28/28/28
f 29/29/29 30/30/30 31/31/31
f 29/29/29 31/31/31 32/32/32
f 33/33/33 34/34/34 35/35/35
f 33/33/33 35/35/35 36/36/36
f 37/37/37 38/38/38 39/39/39
f 37/37/37 39/39/39 40/40/40
f 41/41/41 42/42/42 43/43/43
f 41/41/41 43/43/43 44/44/44
f 45/45/45 46/46/46 47/47/47
f 45/45/45 47/47/47 48/48/48
f 49/49/49 50/50/50 51/51/51
f 49/49/49 51/51/51 52/52/52
f 53/53/53 54/54/54 55/55/55
f 53/53/53 55/55/55 56/56/56
f 57/57/57 58/58/58 59/59/59
f 57/57/57 59/59/59 60/60/60
f 61/61/61 62/62/62 63/63/63
f 61/61/61 63/63/63 64/64/64
f 65/65/65 66/66/66 67/67/67
f 65/65/65 67/67/67 68/68/68
f 69/69/69 70/70/70 71/71/71
f 69/69/69 71/71/71 72/72/72
f 73/73/73 74/74/74 75/75/75
f 73/73/73 75/75/75 76/76/76
f 77/77/77 78/78/78 79/79/79
f 77/77/77 79/79/79 80/80/80
f 81/81/81 82/82/82 83/83/83
f 81/81/81 83/83/83 84/84/84
f 85/85/85 86/86/86 87/87/87
f 85/85/85 87/87/87 88/88/88
f 89/89/89 90/90/90 91/91/91
f 89/89/89 91/91/91 92/92/92
f 93/93/93 94/94/94 95/95/95
f 93/93/93 95/95/95 96/96/96
f 97/97/97 98/98/98 99/99/99
f 97/97/97 99/99/99 100/100/100
f 101/101/101 102/102/102 103/103/103
f 101/101/101 103/103/103 104/104/104
f 105/105/105 106/106/106 107/107/107
f 105/105/105 107/107/107 108/108/108
f 109/109/109 110/110/110 111/111/111
f 109/109/109 111/111/111 112/112/112
